<svg id="Layer_1" enable-background="new 0 0 512 512" height="512" viewBox="0 0 512 512" width="512" xmlns="http://www.w3.org/2000/svg"><g><path d="m352 256c0 53.02-42.98 96-96 96-38.95 0-72.49-23.2-87.54-56.53l-45.59 20.55c22.89 50.69 73.89 85.98 133.13 85.98 80.63 0 146-65.37 146-146z" fill="#ffda8f"/><path d="m502 256c0 135.86-110.14 246-246 246-99.81 0-185.75-59.45-224.32-144.87-13.93-30.85-21.68-65.08-21.68-101.13 0-94.97 53.82-177.38 132.63-218.37 33.93-17.65 72.48-27.63 113.37-27.63 40.21 0 78.17 9.65 111.68 26.75l-22.7 44.56c-26.71-13.62-56.95-21.31-88.98-21.31-32.58 0-63.3 7.95-90.33 22.02-62.79 32.66-105.67 98.31-105.67 173.98 0 28.72 6.18 55.99 17.28 80.57 30.72 68.06 99.19 115.43 178.72 115.43 108.25 0 196-87.75 196-196z" fill="#a0c8ff"/><path d="m402 256c0 80.63-65.37 146-146 146-59.24 0-110.24-35.29-133.13-85.98-8.27-18.31-12.87-38.63-12.87-60.02 0-56.36 31.94-105.27 78.71-129.6l-23.04-44.38c-62.79 32.66-105.67 98.31-105.67 173.98 0 28.72 6.18 55.99 17.28 80.57 30.72 68.06 99.19 115.43 178.72 115.43 108.25 0 196-87.75 196-196z" fill="#b8ecbc"/><g><circle cx="312.835" cy="333.37" r="10"/><path d="m502 246h-150c-2.63 0-5.21 1.07-7.07 2.93s-2.93 4.44-2.93 7.07c0 13.67-3.11 26.74-9.25 38.84-1.21 2.38-1.41 5.1-.58 7.63.83 2.54 2.6 4.61 4.98 5.81 1.41.72 2.93 1.09 4.51 1.09 3.79 0 7.22-2.1 8.93-5.48 6.02-11.86 9.7-24.61 10.94-37.89h30.101c-5.137 70.339-64.004 126-135.631 126-50.009 0-95.902-27.61-119.558-71.124-.001-.002-.001-.004-.002-.006l27.45-12.37c9.1 15.95 22.28 29.34 38.09 38.72 8 4.75 16.6 8.42 25.54 10.91 9.23 2.56 18.81 3.87 28.48 3.87 5.84 0 11.69-.48 17.41-1.42 5.44-.9 9.13-6.06 8.23-11.5-.39-2.35-1.61-4.49-3.43-6.02-2.22-1.87-5.19-2.69-8.07-2.22-4.63.77-9.4 1.16-14.15 1.16-33.73 0-64.51-19.88-78.42-50.65-1.61-3.57-5.19-5.88-9.11-5.88-1.42 0-2.8.3-4.11.88l-36.139 16.29c-5.448-14.885-8.211-30.529-8.211-46.64 0-50.94 28.097-97.201 73.325-120.729 4.897-2.547 6.804-8.581 4.261-13.479l-18.31-35.268c24.091-10.961 49.85-16.524 76.724-16.524 29.719 0 58.127 6.803 84.438 20.219 2.363 1.206 5.108 1.423 7.631.602 2.523-.819 4.617-2.608 5.821-4.972l22.7-44.56c2.506-4.918.552-10.937-4.365-13.446-36.204-18.475-75.308-27.843-116.225-27.843-41.019 0-81.817 9.944-117.984 28.758-40.923 21.285-75.417 53.287-99.754 92.545-25.031 40.381-38.262 86.958-38.262 134.697 0 36.675 7.592 72.084 22.566 105.245 20.005 44.305 52.098 81.894 92.809 108.704 41.774 27.51 90.401 42.051 140.625 42.051 68.379 0 132.666-26.629 181.019-74.981s74.981-112.64 74.981-181.019c0-5.523-4.477-10-10-10zm-402 10c0 22.348 4.628 43.926 13.756 64.135 25.2 55.806 81.034 91.865 142.244 91.865 82.659 0 150.508-64.625 155.683-146h30.046c-5.213 97.929-86.523 176-185.729 176-72.995 0-139.569-42.999-169.606-109.545-10.878-24.089-16.394-49.812-16.394-76.455 0-66.316 34.836-126.809 91.541-160.231l13.835 26.65c-46.737 28.191-75.376 78.501-75.376 133.581zm156 236c-92.609 0-177.083-54.555-215.206-138.985-13.798-30.557-20.794-63.198-20.794-97.015 0-88.401 48.757-168.676 127.245-209.499 33.805-17.584 70.396-26.501 108.755-26.501 34.36 0 67.325 7.16 98.14 21.3l-13.637 26.769c-26.586-11.996-54.962-18.069-84.503-18.069-33.02 0-65.852 8.005-94.944 23.148-68.502 35.631-111.056 105.695-111.056 182.852 0 29.5 6.112 57.993 18.166 84.684 33.264 73.697 106.993 121.316 187.834 121.316 110.233 0 200.522-87.042 205.76-196h30.031c-5.261 125.509-109.012 226-235.791 226z"/></g></g></svg>